<?xml version="1.0" encoding="UTF-8" standalone="no"?>
<!-- Created with Inkscape (http://www.inkscape.org/) -->

<svg
   width="632.02948"
   height="632.02942"
   viewBox="0 0 167.22446 167.22445"
   version="1.1"
   id="svg1149"
   xmlns="http://www.w3.org/2000/svg"
   xmlns:svg="http://www.w3.org/2000/svg">
  <defs
     id="defs1146" />
  <g
     id="layer1"
     transform="translate(-1.0544378,-1.0544329)">
    <path
       id="path1"
       style="display:inline;fill:#ffffff;fill-opacity:1;stroke-width:1.36399;stroke-linecap:round;stroke-linejoin:round;paint-order:markers stroke fill"
       d="M 84.666668,1.0544329 A 83.612247,83.612247 0 0 0 1.0544378,84.66666 83.612247,83.612247 0 0 0 84.666668,168.27889 83.612247,83.612247 0 0 0 168.27889,84.66666 83.612247,83.612247 0 0 0 84.666668,1.0544329 Z M 80.583777,15.57014 c 8.491314,-0.05843 18.210352,1.540487 29.181183,5.391296 C 101.339,21.29364 94.585377,24.452451 89.791883,29.256754 82.659629,36.4051 79.331722,46.317253 78.506187,53.66958 77.960353,58.531 75.242489,64.678693 71.013532,69.456672 66.784583,74.23465 61.162909,77.63217 54.73656,77.63217 c -6.216497,0 -12.167854,-1.999724 -16.530724,-5.917298 -4.362868,-3.917576 -7.232743,-9.743693 -7.232743,-17.846167 0,-5.231942 3.751922,-15.017346 11.868076,-23.206636 8.116156,-8.189286 20.462485,-14.973036 37.742608,-15.091929 z m 34.879093,15.404711 c 3.48795,0 9.0583,1.634462 14.74567,5.16486 5.68737,3.530397 11.54315,8.912362 15.98446,16.261122 7.716,12.76719 11.27284,31.534611 2.17801,57.379977 -0.3288,-8.43298 -3.48558,-15.190888 -8.29266,-19.987178 -7.14835,-7.132254 -17.06316,-10.460143 -24.41547,-11.285679 -4.86143,-0.545834 -11.01022,-3.267244 -15.787982,-7.496182 -4.777754,-4.22894 -8.171967,-9.850595 -8.171967,-16.276969 0,-6.216544 2.000833,-12.167883 5.918186,-16.530733 3.917353,-4.362852 9.739273,-7.229218 17.841753,-7.229218 z M 20.963201,59.553393 c 0.3288,8.432986 3.484701,15.19091 8.291796,19.987183 7.148347,7.132253 17.063144,10.46016 24.415464,11.285679 4.861407,0.54585 11.009996,3.262828 15.787977,7.491785 4.777991,4.22896 8.171967,9.85505 8.171967,16.28139 0,6.21648 -1.999726,12.16343 -5.917301,16.52631 -3.917573,4.36287 -9.740162,7.23273 -17.842641,7.23273 -3.487946,0 -9.058296,-1.63445 -14.745666,-5.16486 C 33.437431,129.66323 27.582534,124.28215 23.141219,116.93339 15.42522,104.16622 11.86844,85.398679 20.963201,59.553393 Z m 93.634459,32.148661 c 6.21653,0 12.167,1.99993 16.52985,5.9173 4.36284,3.917356 7.23274,9.742796 7.23274,17.845286 0,3.48795 -1.638,9.0583 -5.16838,14.74567 -3.53041,5.68736 -8.91149,11.54313 -16.26024,15.98446 -12.76717,7.71599 -31.531171,11.26924 -57.376473,2.17448 8.432486,-0.32905 15.190227,-3.4849 19.986295,-8.2918 7.132272,-7.14834 10.456649,-17.06049 11.282167,-24.41281 0.545852,-4.86141 3.267244,-11.01022 7.496183,-15.787974 4.228958,-4.777755 9.851478,-8.174629 16.277858,-8.174612 z" />
  </g>
</svg>
